<mxfile host="app.diagrams.net" agent="Mozilla/5.0 (Windows NT 10.0; Win64; x64) AppleWebKit/537.36 (KHTML, like Gecko) Chrome/137.0.0.0 Safari/537.36" version="27.1.4">
  <diagram name="第 1 页" id="RHdIZdA35jMu37B6i46y">
    <mxGraphModel dx="902" dy="464" grid="1" gridSize="10" guides="1" tooltips="1" connect="1" arrows="1" fold="1" page="1" pageScale="1" pageWidth="827" pageHeight="1169" math="0" shadow="0">
      <root>
        <mxCell id="0" />
        <mxCell id="1" parent="0" />
        <mxCell id="UkNK3GzfLvaJrIdRbB-Z-7" style="edgeStyle=orthogonalEdgeStyle;rounded=0;orthogonalLoop=1;jettySize=auto;html=1;curved=0;" edge="1" parent="1">
          <mxGeometry relative="1" as="geometry">
            <mxPoint x="490" y="180" as="targetPoint" />
            <mxPoint x="290" y="180" as="sourcePoint" />
          </mxGeometry>
        </mxCell>
        <mxCell id="UkNK3GzfLvaJrIdRbB-Z-2" value="" style="html=1;points=[[0,0,0,0,5],[0,1,0,0,-5],[1,0,0,0,5],[1,1,0,0,-5]];perimeter=orthogonalPerimeter;outlineConnect=0;targetShapes=umlLifeline;portConstraint=eastwest;newEdgeStyle={&quot;curved&quot;:0,&quot;rounded&quot;:0};fontStyle=1" vertex="1" parent="1">
          <mxGeometry x="280" y="120" width="10" height="230" as="geometry" />
        </mxCell>
        <mxCell id="UkNK3GzfLvaJrIdRbB-Z-3" value="用户" style="html=1;whiteSpace=wrap;fontStyle=1" vertex="1" parent="1">
          <mxGeometry x="230" y="80" width="110" height="50" as="geometry" />
        </mxCell>
        <mxCell id="UkNK3GzfLvaJrIdRbB-Z-11" style="edgeStyle=orthogonalEdgeStyle;rounded=0;orthogonalLoop=1;jettySize=auto;html=1;curved=0;" edge="1" parent="1" source="UkNK3GzfLvaJrIdRbB-Z-5" target="UkNK3GzfLvaJrIdRbB-Z-9">
          <mxGeometry relative="1" as="geometry" />
        </mxCell>
        <mxCell id="UkNK3GzfLvaJrIdRbB-Z-5" value="" style="html=1;points=[[0,0,0,0,5],[0,1,0,0,-5],[1,0,0,0,5],[1,1,0,0,-5]];perimeter=orthogonalPerimeter;outlineConnect=0;targetShapes=umlLifeline;portConstraint=eastwest;newEdgeStyle={&quot;curved&quot;:0,&quot;rounded&quot;:0};" vertex="1" parent="1">
          <mxGeometry x="490" y="120" width="10" height="230" as="geometry" />
        </mxCell>
        <mxCell id="UkNK3GzfLvaJrIdRbB-Z-6" value="文件浏览模块" style="html=1;whiteSpace=wrap;" vertex="1" parent="1">
          <mxGeometry x="440" y="80" width="110" height="50" as="geometry" />
        </mxCell>
        <mxCell id="UkNK3GzfLvaJrIdRbB-Z-8" value="发起图片浏览请求" style="text;html=1;align=center;verticalAlign=middle;resizable=0;points=[];autosize=1;strokeColor=none;fillColor=none;" vertex="1" parent="1">
          <mxGeometry x="320" y="148" width="120" height="30" as="geometry" />
        </mxCell>
        <mxCell id="UkNK3GzfLvaJrIdRbB-Z-9" value="" style="html=1;points=[[0,0,0,0,5],[0,1,0,0,-5],[1,0,0,0,5],[1,1,0,0,-5]];perimeter=orthogonalPerimeter;outlineConnect=0;targetShapes=umlLifeline;portConstraint=eastwest;newEdgeStyle={&quot;curved&quot;:0,&quot;rounded&quot;:0};" vertex="1" parent="1">
          <mxGeometry x="670" y="120" width="10" height="230" as="geometry" />
        </mxCell>
        <mxCell id="UkNK3GzfLvaJrIdRbB-Z-10" value="kkFileView" style="html=1;whiteSpace=wrap;" vertex="1" parent="1">
          <mxGeometry x="620" y="80" width="110" height="50" as="geometry" />
        </mxCell>
        <mxCell id="UkNK3GzfLvaJrIdRbB-Z-12" value="生成机型请求" style="text;html=1;align=center;verticalAlign=middle;resizable=0;points=[];autosize=1;strokeColor=none;fillColor=none;" vertex="1" parent="1">
          <mxGeometry x="540" y="208" width="100" height="30" as="geometry" />
        </mxCell>
        <mxCell id="UkNK3GzfLvaJrIdRbB-Z-13" value="" style="html=1;points=[[0,0,0,0,5],[0,1,0,0,-5],[1,0,0,0,5],[1,1,0,0,-5]];perimeter=orthogonalPerimeter;outlineConnect=0;targetShapes=umlLifeline;portConstraint=eastwest;newEdgeStyle={&quot;curved&quot;:0,&quot;rounded&quot;:0};" vertex="1" parent="1">
          <mxGeometry x="675" y="258" width="10" height="40" as="geometry" />
        </mxCell>
        <mxCell id="UkNK3GzfLvaJrIdRbB-Z-14" value="下载文件" style="html=1;align=left;spacingLeft=2;endArrow=block;rounded=0;edgeStyle=orthogonalEdgeStyle;curved=0;rounded=0;" edge="1" target="UkNK3GzfLvaJrIdRbB-Z-13" parent="1">
          <mxGeometry relative="1" as="geometry">
            <mxPoint x="680" y="238" as="sourcePoint" />
            <Array as="points">
              <mxPoint x="710" y="268" />
            </Array>
          </mxGeometry>
        </mxCell>
        <mxCell id="UkNK3GzfLvaJrIdRbB-Z-15" value="生成图片、HTML、PDF" style="html=1;verticalAlign=bottom;endArrow=open;dashed=1;endSize=8;curved=0;rounded=0;" edge="1" parent="1" target="UkNK3GzfLvaJrIdRbB-Z-5">
          <mxGeometry relative="1" as="geometry">
            <mxPoint x="660" y="320" as="sourcePoint" />
            <mxPoint x="580" y="320" as="targetPoint" />
          </mxGeometry>
        </mxCell>
        <mxCell id="UkNK3GzfLvaJrIdRbB-Z-16" value="前端展示" style="html=1;verticalAlign=bottom;endArrow=open;dashed=1;endSize=8;curved=0;rounded=0;" edge="1" parent="1" target="UkNK3GzfLvaJrIdRbB-Z-2">
          <mxGeometry relative="1" as="geometry">
            <mxPoint x="490" y="340" as="sourcePoint" />
            <mxPoint x="330" y="340" as="targetPoint" />
          </mxGeometry>
        </mxCell>
      </root>
    </mxGraphModel>
  </diagram>
</mxfile>
